<?xml version="1.0" encoding="UTF-8"?>
<!DOCTYPE svg PUBLIC "-//W3C//DTD SVG 1.1//EN" "http://www.w3.org/Graphics/SVG/1.1/DTD/svg11.dtd">
<!-- Creator: CorelDRAW X8 -->
<svg xmlns="http://www.w3.org/2000/svg" xml:space="preserve" width="279.902mm" height="69.6902mm" version="1.1" style="shape-rendering:geometricPrecision; text-rendering:geometricPrecision; image-rendering:optimizeQuality; fill-rule:evenodd; clip-rule:evenodd"
viewBox="0 0 28137 7006"
 xmlns:xlink="http://www.w3.org/1999/xlink">
 <defs>
  <style type="text/css">
   <![CDATA[
    .fil5 {fill:#1A1A1A}
    .fil0 {fill:#9A6100}
    .fil1 {fill:#DC6600}
    .fil8 {fill:#DC8B00}
    .fil4 {fill:#E9FF61}
    .fil3 {fill:#FFAA61}
    .fil2 {fill:#FFCC00}
    .fil7 {fill:black;fill-rule:nonzero}
    .fil6 {fill:#1A1A1A;fill-rule:nonzero}
   ]]>
  </style>
 </defs>
 <g id="Capa_x0020_1">
  <metadata id="CorelCorpID_0Corel-Layer"/>
  <!-- <polygon style="fill:#FFFFFF" points="3663,0 4876,2346 4849,3026 4571,3442 4343,3568 4119,3606 3570,3343 3607,3215 3590,2979 3435,2551 2562,2224 "/> -->
  <!-- <polygon class="fil1" points="0,2661 2615,2226 3252,2467 3559,2862 3606,3118 3570,3343 3150,3783 3038,3705 2809,3646 2354,3658 1767,4382 "/> -->
  <!-- <polygon class="fil2" points="1399,6968 1766,4279 2217,3770 2695,3623 2952,3669 3149,3783 3439,4319 3299,4409 3163,4602 3012,5032 3481,5837 "/> -->
  <!-- <polygon class="fil3" points="5927,6968 3444,5790 3115,5194 3137,4694 3267,4468 3440,4321 4038,4210 4081,4390 4216,4582 4600,4761 5487,4697 "/> -->
  <!-- <polygon class="fil4" points="7326,2661 5450,4645 4783,4781 4313,4611 4136,4420 4038,4210 4119,3606 4303,3620 4528,3548 4813,3234 5015,2369 "/> -->
  <path style="fill:#FFFFFF" d="M5927 6968l-2264 -1437 0 1 0 -1c-259,-172 -622,-729 -224,-1212 -400,130 -654,856 -151,1451l-1889 1198 667 -2597c84,-299 501,-817 1084,-588 -247,-340 -1017,-357 -1426,304l-1724 -1426 2676 -168 0 0 0 0c311,-12 932,225 894,850 247,-340 26,-1078 -730,-1263l823 -2080 987 2493 1 0 -1 0c108,292 75,956 -531,1113 400,130 1032,-309 975,-1085l2232 140 -2066 1710 1 0 -1 0c-243,193 -886,366 -1222,-161 0,420 613,886 1333,592l556 2166zm1399 -4307l-2347 -621 -1316 -2040 -1316 2040 -2347 621 1534 1882 -135 2425 2264 -877 2264 877 -134 -2425 1533 -1882z"/>
  <path style="fill:#FFFFFF" d="M10214 1673c-18,-181 -83,-316 -197,-405 -114,-89 -282,-133 -506,-133 -210,0 -368,35 -474,106 -107,71 -160,174 -160,309 0,114 42,204 125,272 84,67 225,126 424,176 202,50 395,98 578,146 183,48 340,102 471,163 78,35 151,76 219,122 67,47 126,103 176,171 49,67 88,147 117,240 28,92 42,200 42,325 0,195 -34,363 -104,503 -69,140 -166,257 -293,349 -126,92 -275,161 -447,205 -172,45 -362,67 -568,67 -220,0 -420,-24 -602,-72 -181,-48 -337,-122 -469,-221 -131,-100 -234,-223 -309,-371 -74,-147 -113,-320 -117,-519l714 0c7,181 81,324 221,429 141,105 330,157 568,157 220,0 390,-43 509,-130 119,-87 178,-211 178,-371 0,-53 -8,-101 -24,-144 -16,-42 -44,-82 -85,-119 -41,-38 -97,-72 -168,-102 -71,-30 -162,-57 -272,-82 -220,-50 -406,-94 -556,-131 -151,-37 -289,-84 -413,-141 -192,-85 -339,-196 -440,-333 -101,-137 -152,-317 -152,-541 0,-160 27,-306 80,-439 53,-134 134,-248 243,-344 108,-96 243,-171 404,-224 162,-53 351,-80 568,-80 224,0 423,29 597,86 174,56 320,136 439,239 119,103 212,226 277,368 66,142 102,298 109,469l-703 0zm2529 1982c423,0 634,-267 634,-799 0,-530 -211,-794 -634,-794 -422,0 -634,264 -634,794 0,532 212,799 634,799zm0 581c-213,0 -403,-34 -570,-102 -167,-67 -308,-161 -423,-282 -116,-121 -204,-266 -264,-437 -60,-170 -91,-357 -91,-559 0,-206 31,-395 94,-565 62,-171 151,-316 269,-437 117,-121 258,-214 423,-280 165,-66 353,-98 562,-98 206,0 391,32 554,98 164,66 303,158 419,277 115,119 204,264 266,434 62,171 93,361 93,571 0,209 -31,398 -93,567 -62,169 -151,313 -266,434 -116,121 -256,214 -421,280 -165,66 -349,99 -552,99zm1810 -70l0 -3580 693 0 0 3580 -693 0zm1229 0l0 -2621 693 0 0 2621 -693 0zm0 -2935l0 -645 693 0 0 645 -693 0zm2812 1108c-18,-128 -64,-218 -138,-269 -75,-52 -192,-78 -352,-78 -132,0 -233,17 -304,51 -71,34 -106,90 -106,168 0,78 35,138 106,178 71,41 178,81 320,120 149,43 291,81 426,115 135,34 254,70 357,109 139,57 245,134 320,232 74,97 112,232 112,402 0,274 -97,487 -291,639 -193,153 -478,230 -855,230 -405,0 -715,-86 -930,-256 -215,-171 -326,-389 -333,-656l714 0c0,125 48,221 144,288 96,68 229,101 400,101 124,0 232,-20 325,-61 92,-41 138,-111 138,-210 0,-93 -41,-158 -125,-197 -83,-40 -182,-73 -296,-102 -220,-53 -397,-101 -532,-144 -135,-42 -249,-94 -341,-154 -125,-78 -211,-167 -259,-266 -48,-100 -72,-208 -72,-325 0,-111 20,-214 59,-310 39,-95 103,-178 192,-247 88,-70 203,-124 343,-163 141,-39 310,-58 509,-58 380,0 660,72 839,218 180,146 278,361 296,645l-666 0zm2833 1481c-50,117 -139,209 -269,274 -130,66 -276,99 -440,99 -138,0 -266,-22 -383,-67 -118,-44 -219,-108 -304,-191 -85,-84 -152,-183 -200,-299 -48,-115 -72,-246 -72,-391l0 -1700 693 0 0 1598c0,327 147,490 442,490 160,0 289,-46 386,-138 98,-92 147,-210 147,-352l0 -1598 693 0 0 2691c0,184 -31,349 -94,495 -62,146 -147,268 -255,368 -109,99 -237,176 -384,229 -147,53 -305,80 -472,80 -387,0 -676,-98 -868,-293 -192,-196 -288,-464 -288,-805l645 0c0,156 45,279 136,368 90,89 226,133 407,133 64,0 125,-13 182,-40 56,-27 107,-64 151,-112 45,-48 80,-107 107,-178 27,-71 40,-150 40,-235l0 -426zm2524 -165c423,0 634,-267 634,-799 0,-530 -211,-794 -634,-794 -423,0 -634,264 -634,794 0,532 211,799 634,799zm0 581c-213,0 -403,-34 -570,-102 -167,-67 -308,-161 -424,-282 -115,-121 -203,-266 -264,-437 -60,-170 -90,-357 -90,-559 0,-206 31,-395 93,-565 62,-171 152,-316 269,-437 117,-121 259,-214 424,-280 165,-66 352,-98 562,-98 206,0 391,32 554,98 163,66 303,158 418,277 116,119 204,264 267,434 62,171 93,361 93,571 0,209 -31,398 -93,567 -63,169 -151,313 -267,434 -115,121 -256,214 -421,280 -165,66 -349,99 -551,99zm3488 -70l0 -1587c0,-203 -34,-340 -101,-411 -68,-71 -183,-106 -346,-106 -359,0 -539,200 -539,602l0 1502 -692 0 0 -2621 660 0 0 384c82,-150 190,-262 325,-339 135,-76 309,-114 523,-114 124,0 239,18 346,56 106,37 198,93 274,167 77,75 137,166 181,275 45,108 67,233 67,375l0 1817 -698 0z"/>
  <path style="fill:#FFFFFF" d="M8166 5991c0,-182 45,-328 134,-438 90,-110 217,-166 381,-166 79,0 149,15 210,43 61,29 112,69 154,121l26 -142 241 0 0 1139c0,146 -52,259 -157,338 -105,80 -252,120 -443,120 -66,0 -135,-8 -209,-22 -74,-15 -141,-35 -201,-60l47 -160c52,22 108,38 169,51 61,12 125,18 191,18 108,0 187,-23 238,-71 51,-47 77,-119 77,-215l0 -112c-42,44 -91,77 -149,100 -57,22 -123,33 -197,33 -162,0 -288,-50 -378,-152 -89,-101 -134,-235 -134,-403l0 -22zm289 22c0,120 24,215 71,285 47,70 122,105 225,105 65,0 119,-12 164,-37 45,-24 81,-59 109,-104l0 -559c-28,-46 -64,-83 -109,-109 -45,-27 -99,-40 -162,-40 -102,0 -177,40 -226,121 -48,81 -72,187 -72,316l0 22zm1845 -427l-125 -5c-60,0 -111,14 -151,40 -40,28 -71,65 -93,115l0 810 -288 0 0 -1137 265 0 20 168c33,-60 77,-106 130,-139 53,-34 114,-51 183,-51 17,0 34,2 50,4 15,3 29,6 42,9l-33 186zm1060 794c-41,60 -94,107 -158,139 -65,33 -139,49 -224,49 -141,0 -251,-40 -331,-120 -79,-81 -119,-206 -119,-376l0 -663 290 0 0 665c0,122 18,207 56,256 38,49 95,73 173,73 71,0 131,-12 181,-37 50,-24 88,-59 117,-105l0 -852 289 0 0 1137 -246 0 -28 -166zm1755 -367c0,168 -46,303 -136,404 -90,101 -216,151 -378,151 -75,0 -142,-11 -200,-33 -58,-22 -108,-54 -148,-97l0 546 -289 0 0 -1575 245 0 27 136c41,-51 93,-90 153,-117 61,-27 131,-41 211,-41 163,0 289,56 379,166 90,110 136,256 136,438l0 22zm-290 -22c0,-129 -25,-234 -76,-315 -50,-81 -126,-122 -227,-122 -64,0 -118,13 -163,39 -44,26 -80,62 -106,107l0 573c26,42 62,76 106,99 45,23 99,34 165,34 101,0 176,-35 226,-107 50,-71 75,-167 75,-286l0 -22zm509 -26c0,-169 54,-308 162,-415 107,-108 255,-163 443,-163 188,0 337,55 444,163 109,107 163,246 163,415l0 28c0,170 -54,308 -162,415 -108,107 -255,160 -442,160 -190,0 -339,-53 -446,-160 -108,-107 -162,-245 -162,-415l0 -28zm289 28c0,122 27,221 79,298 52,77 132,115 240,115 105,0 184,-38 236,-116 53,-77 79,-176 79,-297l0 -28c0,-119 -27,-218 -80,-296 -53,-78 -132,-118 -238,-118 -106,0 -185,40 -237,118 -52,78 -79,177 -79,296l0 28z"/>
  <path style="fill:#FFFFFF" d="M27936 4631l-5814 299c-542,791 -1797,956 -2430,205l-41 -57 -3938 209 0 1240 12223 0 0 -1896z"/>
 </g>
</svg>
